<svg xmlns="http://www.w3.org/2000/svg" xmlns:xlink="http://www.w3.org/1999/xlink" viewBox="0 0 256 256"><defs><style>.cls-1,.cls-3,.cls-4,.cls-5,.cls-6,.cls-7,.cls-8{fill:none;}.cls-2{clip-path:url(#clip-path);}.cls-3,.cls-4,.cls-5,.cls-6,.cls-7,.cls-8{stroke-miterlimit:10;stroke-width:33.16px;}.cls-3{stroke:url(#linear-gradient);}.cls-4{stroke:url(#linear-gradient-2);}.cls-5{stroke:url(#linear-gradient-3);}.cls-6{stroke:url(#linear-gradient-4);}.cls-7{stroke:url(#linear-gradient-5);}.cls-8{stroke:url(#linear-gradient-6);}</style><clipPath id="clip-path"><rect class="cls-1" x="-0.37" y="-0.37" width="256.74" height="256.74"/></clipPath><linearGradient id="linear-gradient" x1="227.06" y1="28.94" x2="28.94" y2="227.06" gradientTransform="translate(128 -53.02) rotate(45)" gradientUnits="userSpaceOnUse"><stop offset="0" stop-color="#fd4a5c"/><stop offset="0.17" stop-color="#f32735"/><stop offset="0.33" stop-color="#e50695"/><stop offset="0.5" stop-color="#9578d3"/><stop offset="0.67" stop-color="#8ab7e9"/><stop offset="0.83" stop-color="#2a7de1"/><stop offset="1" stop-color="#00c08b"/></linearGradient><linearGradient id="linear-gradient-2" x1="227.06" y1="-37.64" x2="28.94" y2="160.48" xlink:href="#linear-gradient"/><linearGradient id="linear-gradient-3" x1="227.06" y1="-103.96" x2="28.94" y2="94.16" xlink:href="#linear-gradient"/><linearGradient id="linear-gradient-4" x1="227.06" y1="161.97" x2="28.94" y2="360.09" xlink:href="#linear-gradient"/><linearGradient id="linear-gradient-5" x1="227.06" y1="95.39" x2="28.94" y2="293.51" xlink:href="#linear-gradient"/><linearGradient id="linear-gradient-6" x1="103.2" y1="20.58" x2="152.8" y2="235.42" gradientTransform="matrix(1, 0, 0, 1, 0, 0)" xlink:href="#linear-gradient"/></defs><g id="Layer_1" data-name="Layer 1"><g class="cls-2"><line class="cls-3" x1="-0.37" y1="-0.37" x2="256.37" y2="256.37"/><line class="cls-4" x1="46.71" y1="-47.45" x2="303.45" y2="209.29"/><line class="cls-5" x1="93.61" y1="-94.34" x2="350.34" y2="162.4"/><line class="cls-6" x1="-94.43" y1="93.7" x2="162.3" y2="350.43"/><line class="cls-7" x1="-47.35" y1="46.62" x2="209.38" y2="303.36"/></g></g><g id="Layer_2" data-name="Layer 2"><path class="cls-8" d="M186.8,128c-13.45,34.9-50.68,51.47-83.16,37S55.75,110.55,69.2,75.66s50.68-51.47,83.16-37L103.64,217.36c32.48,14.45,69.71-2.12,83.16-37a72.87,72.87,0,0,0,0-52.34c-6.23-16.17-18.21-29.79-34.44-37C119.88,76.53,82.65,93.1,69.2,128"/></g></svg>